<svg width="20" height="16" viewBox="0 0 20 16" fill="none" xmlns="http://www.w3.org/2000/svg">
<path d="M3.71042 1V0.5C3.5636 0.5 3.42419 0.564534 3.32919 0.676482C3.23419 0.78843 3.19319 0.936476 3.21708 1.08134L3.71042 1ZM19.2922 1L19.7855 1.08134C19.8094 0.936476 19.7684 0.78843 19.6734 0.676482C19.5784 0.564534 19.439 0.5 19.2922 0.5V1ZM17.8082 10V10.5C18.0529 10.5 18.2617 10.3228 18.3015 10.0813L17.8082 10ZM5.1944 10L4.70106 10.0813C4.74088 10.3228 4.94965 10.5 5.1944 10.5V10ZM5 1.5C5.27614 1.5 5.5 1.27614 5.5 1C5.5 0.723858 5.27614 0.5 5 0.5V1.5ZM1 0.5C0.723858 0.5 0.5 0.723858 0.5 1C0.5 1.27614 0.723858 1.5 1 1.5V0.5ZM3.71042 1.5H19.2922V0.5H3.71042V1.5ZM18.7988 0.918655L17.3149 9.91866L18.3015 10.0813L19.7855 1.08134L18.7988 0.918655ZM17.8082 9.5H5.1944V10.5H17.8082V9.5ZM5.68774 9.91866L4.20376 0.918655L3.21708 1.08134L4.70106 10.0813L5.68774 9.91866ZM7 15.5C7.82843 15.5 8.5 14.8284 8.5 14H7.5C7.5 14.2761 7.27614 14.5 7 14.5V15.5ZM8.5 14C8.5 13.1716 7.82843 12.5 7 12.5V13.5C7.27614 13.5 7.5 13.7239 7.5 14H8.5ZM7 12.5C6.17157 12.5 5.5 13.1716 5.5 14H6.5C6.5 13.7239 6.72386 13.5 7 13.5V12.5ZM5.5 14C5.5 14.8284 6.17157 15.5 7 15.5V14.5C6.72386 14.5 6.5 14.2761 6.5 14H5.5ZM16 15.5C16.8284 15.5 17.5 14.8284 17.5 14H16.5C16.5 14.2761 16.2761 14.5 16 14.5V15.5ZM17.5 14C17.5 13.1716 16.8284 12.5 16 12.5V13.5C16.2761 13.5 16.5 13.7239 16.5 14H17.5ZM16 12.5C15.1716 12.5 14.5 13.1716 14.5 14H15.5C15.5 13.7239 15.7239 13.5 16 13.5V12.5ZM14.5 14C14.5 14.8284 15.1716 15.5 16 15.5V14.5C15.7239 14.5 15.5 14.2761 15.5 14H14.5ZM5 0.5H1V1.5H5V0.5Z" fill="#050733"/>
</svg>
