<svg xmlns="http://www.w3.org/2000/svg" style="display: none;">

    <!-- #Tva Logo-->
    <symbol id="tvaLogo" viewBox="0 0 231 28" fill="none" xmlns="http://www.w3.org/2000/svg">
          <path d="M0 3.47196H11.22V27H15.538V3.47196H26.758V0.581957H0V3.47196Z" fill="black"/>
          <path d="M57.1577 0.581957H52.4317L42.2997 24.11L32.1677 0.581957H27.4417L39.1717 27H45.4277L57.1577 0.581957Z" fill="black"/>
          <path d="M80.4366 27H85.1626L72.9226 0.581957H65.6466L53.4066 27H58.0986L61.8726 18.602H76.6626L80.4366 27ZM68.7066 3.47196H69.8966L75.3706 15.712H63.1986L68.7066 3.47196Z" fill="black"/>
          <path d="M112.404 10.816C109.48 10.17 107.746 9.28596 107.746 7.27996C107.746 5.03596 110.024 3.47196 113.594 3.47196C121.55 3.47196 121.074 9.21796 121.074 9.21796L125.63 7.99396C125.63 7.99396 125.358 0.105957 113.798 0.105957C106.386 0.105957 103.156 3.70996 103.156 7.68796C103.156 10.85 105.366 13.366 109.888 14.42L116.314 15.916C120.19 16.834 122.298 17.582 122.298 20.132C122.298 22.308 119.748 24.11 115.464 24.11C105.672 24.11 106.488 16.732 106.488 16.732L101.932 18.058C102.102 21.628 105.264 27.476 115.566 27.476C121.958 27.476 126.888 24.892 126.888 19.928C126.888 16.494 124.882 13.604 119.136 12.312L112.404 10.816Z" fill="black"/>
          <path d="M128.944 10.68H133.16V20.608C133.16 25.334 135.642 27.476 139.688 27.476C143.87 27.476 145.672 24.756 145.672 24.756L144.856 21.73C144.856 21.73 143.836 24.45 140.538 24.45C138.362 24.45 137.24 23.124 137.24 20.166V10.68H144.992V8.12996H137.24V1.12596L133.33 3.84596V8.12996H128.944V10.68Z" fill="black"/>
          <path d="M153.499 8.12996H149.419V19.826C149.419 24.586 151.731 27.476 157.341 27.476C164.549 27.476 165.025 21.39 165.025 21.39L166.759 27H168.731V8.12996H164.651V19.35C164.651 20.506 163.971 24.45 158.837 24.45C155.437 24.45 153.499 22.92 153.499 19.758V8.12996Z" fill="black"/>
          <path d="M190.051 11.632C190.051 11.632 188.385 7.65396 183.285 7.65396C177.641 7.65396 173.833 11.802 173.833 17.582C173.833 23.362 177.641 27.476 183.285 27.476C189.269 27.476 190.527 22.512 190.527 22.512L191.819 27H194.131V0.581957C194.131 0.581957 192.193 0.955956 190.051 0.955956V11.632ZM184.577 24.45C180.565 24.45 178.185 21.662 178.185 17.582C178.185 13.502 180.565 10.68 184.577 10.68C188.657 10.68 190.901 13.842 190.901 17.582C190.901 21.322 188.657 24.45 184.577 24.45Z" fill="black"/>
          <path d="M200.253 27H204.333V8.12996H200.253V27ZM200.253 3.84596H204.333V0.581957H200.253V3.84596Z" fill="black"/>
          <path d="M209.427 17.548C209.427 23.124 213.405 27.476 220.137 27.476C226.869 27.476 230.847 23.124 230.847 17.548C230.847 12.006 226.869 7.65396 220.137 7.65396C213.405 7.65396 209.427 12.006 209.427 17.548ZM213.779 17.548C213.779 13.468 216.193 10.68 220.137 10.68C224.013 10.68 226.495 13.468 226.495 17.548C226.495 21.628 224.013 24.45 220.137 24.45C216.193 24.45 213.779 21.628 213.779 17.548Z" fill="black"/>
    </symbol>
     

    <!-- #Search Icon Tva-->
    <symbol id="searchIcon" viewBox="0 0 28 28" xmlns="http://www.w3.org/2000/svg">
          <path d="M27.8291 26.1794L19.6953 18.0456C21.238 16.141 22.1667 13.7196 22.1667 11.0834C22.1667 4.97203 17.1947 0 11.0833 0C4.97198 0 0 4.97203 0 11.0834C0 17.1947 4.97203 22.1667 11.0834 22.1667C13.7196 22.1667 16.141 21.238 18.0456 19.6954L26.1794 27.8292C26.4073 28.0569 26.7765 28.0569 27.0044 27.8292L27.8292 27.0044C28.0569 26.7765 28.0569 26.4072 27.8291 26.1794ZM11.0834 19.8334C6.25834 19.8334 2.33336 15.9084 2.33336 11.0834C2.33336 6.25834 6.25834 2.33336 11.0834 2.33336C15.9084 2.33336 19.8334 6.25834 19.8334 11.0834C19.8334 15.9084 15.9084 19.8334 11.0834 19.8334Z" fill="currentColor"/>
    </symbol>


</svg>

