<svg width="35" height="34" viewBox="0 0 35 34" fill="none" xmlns="http://www.w3.org/2000/svg">
<path d="M30.3922 14.9333C31.5125 15.5752 32.5797 16.2188 33.6752 16.8063C34.8088 17.4136 35.2244 18.3279 34.8853 19.5458C33.7117 23.7589 32.1941 25.4439 27.9037 25.3366C27.6029 25.3366 27.1457 25.3861 27.0161 25.5841C26.2814 26.703 25.4353 27.8021 24.9831 29.0398C24.1354 31.3667 22.7357 32.9262 20.3105 33.5632C18.344 34.0797 16.6086 33.149 16.2545 31.1505C15.9935 29.6801 15.922 28.18 15.7442 26.5495C15.4383 26.6634 15.0244 26.8053 14.6221 26.9737C12.9166 27.6866 11.158 27.9803 9.31947 27.6668C7.26988 27.3153 5.68906 25.8317 5.44138 24.0378C5.25687 22.6846 5.51452 21.5492 6.7712 20.7521C7.45772 20.3181 8.02622 19.6943 8.52989 19.2553C6.65152 18.0721 4.76317 17.0076 3.02609 15.7369C2.09854 15.0587 1.37877 14.0636 0.654018 13.1411C-0.223664 12.0222 -0.230313 10.8967 0.708874 9.71838C1.50178 8.72822 2.47587 8.79093 3.54638 8.84869C5.47296 8.9543 7.4012 9.01371 9.33111 9.04177C10.3285 9.05827 10.6194 8.45757 10.4714 7.52352C10.3052 6.48384 10.139 5.43922 10.0791 4.38799C10.0193 3.39783 10.4964 2.73772 11.4671 2.38291C13.2956 1.7228 15.1474 1.10725 16.9094 0.295313C19.215 -0.767464 22.1955 1.22277 22.4132 3.32852C22.4864 4.04144 22.8687 4.25597 23.5087 4.23287C24.1736 4.20811 24.8535 4.23287 25.525 4.19821C27.9719 4.0992 30.1528 4.7494 32.0561 6.35512C32.859 7.03173 33.0535 7.88328 32.7692 8.74472C32.1874 10.5419 31.456 12.2912 30.7745 14.0586C30.6714 14.3276 30.5368 14.585 30.3772 14.9316" fill="#2A2920"/>
</svg>
